  <svg xmlns="http://www.w3.org/2000/svg" id="Layer_1" data-name="Layer 1" viewBox="0 0 250 250"><defs><style>.cls-1{fill:#2a7a99;}.cls-2{fill:#fff;}</style></defs><circle class="cls-1" cx="125" cy="125" r="125"></circle><path class="cls-2" d="M170.79,76.11,151.78,95a3.4,3.4,0,0,0-3.69.64L146.72,97l-1.09-1.08a1.21,1.21,0,0,0-1.65,0l-2.64,2.62-1-1.06a1.19,1.19,0,0,0-1.64,0L94.76,141l-2.06-2.08a1.13,1.13,0,0,0-.83-.35,1.25,1.25,0,0,0-.84.34L86.86,143a1.2,1.2,0,0,0,0,1.64l5,5.11-10.74,10.6-2.74-2.79a1.13,1.13,0,0,0-.83-.35,1.17,1.17,0,0,0-.82.34l-4.21,4.18a1.2,1.2,0,0,0,0,1.64l11.79,11.86a1.14,1.14,0,0,0,.81.35,1.18,1.18,0,0,0,.84-.35l4.17-4.13h0a1.16,1.16,0,0,0,0-1.67l-2.75-2.79,10.74-10.61,5,5.08a1,1,0,0,0,.83.35,1.05,1.05,0,0,0,.81-.34L109,157a1.09,1.09,0,0,0,.35-.83,1.14,1.14,0,0,0-.34-.81l-2.1-2.12,36.15-35.78s7.78-7.76,7.78-7.76a1.14,1.14,0,0,0,0-1.65l-1-1,2.61-2.59a1.07,1.07,0,0,0,.37-.83,1.13,1.13,0,0,0-.34-.81l-1.11-1.1,1.37-1.36a3.34,3.34,0,0,0,1-2.35,3.1,3.1,0,0,0-.31-1.35l21-20.88C174.9,75.31,170.79,76.11,170.79,76.11Z"></path></svg>